<?xml version="1.0" encoding="UTF-8" standalone="no"?>
<!DOCTYPE svg PUBLIC "-//W3C//DTD SVG 1.1//EN" "http://www.w3.org/Graphics/SVG/1.1/DTD/svg11.dtd">
<svg width="100%" height="100%" viewBox="0 0 451 102" version="1.1" xmlns="http://www.w3.org/2000/svg" xmlns:xlink="http://www.w3.org/1999/xlink" xml:space="preserve" xmlns:serif="http://www.serif.com/" style="fill-rule:evenodd;clip-rule:evenodd;stroke-linejoin:round;stroke-miterlimit:2;">
    <g transform="matrix(1,0,0,1,-32.4794,-203.056)">
        <g transform="matrix(11.4293,0,0,11.4293,-126.084,-14.5754)">
            <g transform="matrix(12.5992,0,0,12.5992,12.9914,27.8609)">
                <path d="M0.266,-0.153L0.266,-0.281L0.577,-0.281L0.577,-0.429L0.266,-0.429L0.266,-0.547L0.619,-0.547L0.619,-0.7L0.07,-0.7L0.07,0L0.632,0L0.632,-0.153L0.266,-0.153Z" style="fill:white;fill-rule:nonzero;"/>
            </g>
            <g transform="matrix(12.5992,0,0,12.5992,21.2061,27.8609)">
                <path d="M0.503,0L0.715,0L0.564,-0.22C0.651,-0.262 0.701,-0.338 0.701,-0.441C0.701,-0.601 0.581,-0.7 0.39,-0.7L0.07,-0.7L0.07,0L0.268,0L0.268,-0.186L0.376,-0.186L0.503,0ZM0.501,-0.441C0.501,-0.377 0.46,-0.339 0.378,-0.339L0.268,-0.339L0.268,-0.544L0.378,-0.544C0.46,-0.544 0.501,-0.506 0.501,-0.441Z" style="fill:white;fill-rule:nonzero;"/>
            </g>
            <g transform="matrix(12.5992,0,0,12.5992,30.2775,27.8609)">
                <path d="M0.39,-0.7L0.07,-0.7L0.07,0L0.268,0L0.268,-0.183L0.39,-0.183C0.581,-0.183 0.701,-0.282 0.701,-0.441C0.701,-0.601 0.581,-0.7 0.39,-0.7ZM0.378,-0.339L0.268,-0.339L0.268,-0.544L0.378,-0.544C0.46,-0.544 0.501,-0.506 0.501,-0.441C0.501,-0.377 0.46,-0.339 0.378,-0.339Z" style="fill:white;fill-rule:nonzero;"/>
            </g>
        </g>
        <g transform="matrix(6.19235,0,0,6.19235,275.511,-13.6865)">
            <g transform="matrix(12.9192,0,0,12.9192,6.64689,51.3572)">
                <path d="M0.402,-0.526C0.313,-0.526 0.237,-0.494 0.186,-0.423L0.206,-0.522L0.157,-0.522L0.053,0L0.103,0L0.16,-0.284C0.186,-0.414 0.27,-0.481 0.389,-0.481C0.487,-0.481 0.536,-0.433 0.536,-0.352C0.536,-0.336 0.535,-0.32 0.531,-0.302L0.471,0L0.521,0L0.581,-0.302C0.585,-0.322 0.587,-0.341 0.587,-0.359C0.587,-0.462 0.522,-0.526 0.402,-0.526Z" style="fill:white;fill-rule:nonzero;"/>
            </g>
            <g transform="matrix(12.9192,0,0,12.9192,14.9539,51.3572)">
                <path d="M0.546,-0.25C0.549,-0.267 0.552,-0.288 0.552,-0.308C0.552,-0.444 0.466,-0.526 0.33,-0.526C0.166,-0.526 0.045,-0.393 0.045,-0.215C0.045,-0.078 0.135,0.004 0.283,0.004C0.366,0.004 0.443,-0.026 0.489,-0.076L0.466,-0.111C0.425,-0.067 0.361,-0.041 0.287,-0.041C0.16,-0.041 0.094,-0.104 0.094,-0.217C0.094,-0.228 0.095,-0.239 0.096,-0.25L0.546,-0.25ZM0.329,-0.483C0.433,-0.483 0.505,-0.423 0.505,-0.315C0.505,-0.306 0.505,-0.298 0.504,-0.289L0.102,-0.289C0.127,-0.405 0.214,-0.483 0.329,-0.483Z" style="fill:white;fill-rule:nonzero;"/>
            </g>
            <g transform="matrix(12.9192,0,0,12.9192,22.292,51.3572)">
                <path d="M0.536,-0.522L0.477,-0.522L0.266,-0.304L0.14,-0.522L0.087,-0.522L0.233,-0.27L-0.03,0L0.03,0L0.255,-0.233L0.389,0L0.443,0L0.288,-0.266L0.536,-0.522Z" style="fill:white;fill-rule:nonzero;"/>
            </g>
            <g transform="matrix(12.9192,0,0,12.9192,28.6095,51.3572)">
                <path d="M0.21,-0.479L0.376,-0.479L0.384,-0.522L0.218,-0.522L0.241,-0.636L0.191,-0.636L0.168,-0.522L0.071,-0.522L0.063,-0.479L0.16,-0.479L0.093,-0.147C0.09,-0.133 0.089,-0.12 0.089,-0.107C0.089,-0.037 0.133,0.004 0.208,0.004C0.247,0.004 0.289,-0.006 0.32,-0.031L0.305,-0.068C0.281,-0.049 0.251,-0.039 0.22,-0.039C0.166,-0.039 0.14,-0.065 0.14,-0.114C0.14,-0.125 0.141,-0.137 0.144,-0.151L0.21,-0.479Z" style="fill:white;fill-rule:nonzero;"/>
            </g>
        </g>
    </g>
</svg>
