<?xml version="1.0" encoding="UTF-8" standalone="no"?>
<!DOCTYPE svg PUBLIC "-//W3C//DTD SVG 1.1//EN" "http://www.w3.org/Graphics/SVG/1.1/DTD/svg11.dtd">
<svg width="100%" height="100%" viewBox="0 0 300 200" version="1.1" xmlns="http://www.w3.org/2000/svg" xmlns:xlink="http://www.w3.org/1999/xlink" xml:space="preserve" xmlns:serif="http://www.serif.com/" style="fill-rule:evenodd;clip-rule:evenodd;stroke-linejoin:round;stroke-miterlimit:2;">
    <g id="g25">
        <g id="g6" transform="matrix(1,0,0,1,-9.59464,1.98386)">
            <path id="path2" d="M14.642,58.007C25.308,56.893 57.035,36.196 77.327,44.588C76.819,60.448 59.522,68.954 67.209,90.74C21.877,84.668 29.15,131.15 31.007,143.967C33.186,146.191 64.065,123.966 74.198,124.702C65.007,136.011 31.302,162.91 20.921,164.506C14.798,147.652 26.174,112.812 17.726,84.502C43.658,97.036 63.21,76.913 57.283,51.038C49.288,49.418 26.967,63.97 14.642,58.007Z" style="fill:rgb(4,4,4);"/>
            <path id="path4" d="M104.558,24.602C110.445,25.169 110.25,28.96 118.11,28.235C112.664,56.389 102.903,55.233 97.981,70.844C112.563,72.365 129.329,58.235 154.32,61.305C151.502,71.39 139.717,69.727 127.917,70.844C129.421,91.498 126.364,105.642 118.11,127.821C121.679,150.821 164.206,158.011 177.165,161.905C173.86,171.826 148.26,172.089 134.422,170.988C122.838,159.436 120.447,153.523 110.615,141.462C96.438,148.234 86.456,159.385 57.717,161.905C64.21,155.795 91.076,148.192 101.327,131.391C97.938,115.722 75.153,108.398 80.775,101.814C96.202,97.11 98.68,119.123 104.558,120.926C115.655,116.413 113.984,93.838 114.363,78.263C98.969,73.698 88.251,81.209 80.775,87.459C82.105,75.721 100.01,53.782 104.558,24.602Z" style="fill:rgb(4,4,4);"/>
        </g>
        <g id="path8" transform="matrix(1,0,0,1,-75,0)">
            <path d="M270.436,37.821C262.357,41.031 250.524,26.95 251.04,21.101C263.604,11.288 276.038,26.111 270.436,37.821" style="fill:rgb(4,4,4);"/>
        </g>
        <g id="path10" transform="matrix(1,0,0,1,-75,0)">
            <path d="M310.797,8C318.018,8.991 328.991,13.256 327.27,21.374C317.527,22.246 307.882,36.175 297.425,34.236C299.443,28.797 308.169,23.907 310.797,8Z" style="fill:rgb(4,4,4);"/>
        </g>
        <g id="path12" transform="matrix(1,0,0,1,-79.5946,1.98386)">
            <path d="M319.148,38.342C292.927,38.545 271.57,46.618 247.746,44.945C245.695,59.89 287.918,41.78 280.264,64.531C279.384,71.004 253.16,66.585 247.746,68.717C245.037,81.252 271.016,69.623 280.264,76.48C279.894,85.03 282.092,83.864 280.264,90.789C258.8,91.447 238.08,90.502 230.846,98.016C237.506,101.16 245.735,97.608 253.902,101.881C254.979,113.793 261.258,117.311 260.479,124.252C248.88,128.011 223.281,124.92 208.01,131.547C230.838,138.196 352.087,123.309 374.547,121.238C355.027,107.797 329.342,122.7 314.33,118.109C324.488,103.778 320.247,98.504 320.299,94.793C327.783,90.336 341.006,95.028 344.119,87.637C325.559,76.238 303.737,95.796 290.621,85.072C292.569,77.116 294.494,79.111 294.242,71.451C304.552,70.574 320.355,71.45 324.352,61.895C316.008,57.235 303.946,65.689 295.275,62.621C291.77,55.583 293.818,52.818 294.242,48.354C303.464,47.859 320.719,51.123 327.451,38.551C324.626,38.384 321.861,38.321 319.148,38.342ZM307.127,94.846C309.639,107.128 304.909,108.423 304.086,121.195C290.17,120.807 280.335,120.603 270.85,124.252C269.546,113.606 271.592,107.627 261.42,101.168C265.773,97.297 296.6,94.99 307.127,94.846Z" style="fill:rgb(4,4,4);"/>
        </g>
        <g id="path18" transform="matrix(1,0,0,1,-75,0)">
            <path d="M302.377,138.293C282.062,138.226 259.478,142.734 244.623,144.859C256.608,155.322 249.685,153.218 257.459,184.404C281.077,178.133 299.323,186.304 320.986,174.068C317.298,156.431 334.488,158.569 334.332,144.859C325.937,140.021 314.566,138.333 302.377,138.293ZM298.121,144.871C302.501,144.911 307.665,145.68 314.201,147.781C311.049,156.957 312.931,158.252 307.855,171.207C285.114,169.761 280.992,177.507 264.037,174.068C267.195,160.38 258.905,155.119 264.037,147.781C278.898,151.177 284.98,144.75 298.121,144.871Z" style="fill:rgb(4,4,4);"/>
        </g>
    </g>
</svg>
