<?xml version="1.0" encoding="UTF-8" standalone="no"?>
<!DOCTYPE svg PUBLIC "-//W3C//DTD SVG 1.1//EN" "http://www.w3.org/Graphics/SVG/1.1/DTD/svg11.dtd">
<svg width="100%" height="100%" viewBox="0 0 256 256" version="1.1" xmlns="http://www.w3.org/2000/svg" xmlns:xlink="http://www.w3.org/1999/xlink" xml:space="preserve" xmlns:serif="http://www.serif.com/" style="fill-rule:evenodd;clip-rule:evenodd;stroke-linejoin:round;stroke-miterlimit:2;">
    <g transform="matrix(1,0,0,1,24.5,-5)">
        <circle cx="129.5" cy="44.5" r="31.5" style="fill:rgb(4,4,4);"/>
    </g>
    <g transform="matrix(0.834963,0.550307,-0.573612,0.870322,102.162,-64.609)">
        <path d="M128,109.423C128,95.392 116.126,84 101.5,84C86.874,84 75,95.392 75,109.423L75,156.577C75,170.608 86.874,182 101.5,182C116.126,182 128,170.608 128,156.577L128,109.423Z" style="fill:rgb(4,4,4);"/>
    </g>
    <g transform="matrix(1,0,0,1,10,-14)">
        <path d="M110.299,90.004C113.939,90.202 117.243,92.088 119.269,95.077L140.275,127.95L188.658,112.52C188.658,112.52 194.089,111.338 197.824,113.668C203.006,116.902 204.566,124.814 200.648,129.798C199.296,131.518 197.403,132.761 195.342,133.48L138.902,151.48C137.199,151.974 136.882,151.95 136.072,151.988C132.619,152.149 129.132,150.581 126.962,147.861C126.642,147.46 126.578,147.347 126.291,146.923L100.731,106.923C99.474,104.833 99.306,103.992 99.101,102.484C98.328,96.806 102.698,90.892 108.516,90.1C109.66,89.945 109.932,90.004 110.299,90.004Z" style="fill:rgb(4,4,4);"/>
    </g>
    <g transform="matrix(-0.720078,0.693893,-0.693893,-0.720078,271.792,68.4045)">
        <path d="M127.665,148.66C126.997,147.935 126.842,147.74 126.291,146.923L100.731,106.923C97.074,100.863 100.429,91.972 107.451,90.299C111.847,89.252 116.69,91.261 119.269,95.077L140.275,127.95L188.658,112.52C188.658,112.52 193.545,111.233 197.421,113.428C204.457,117.413 204.715,129.965 195.877,133.294C195.701,133.361 195.521,133.418 195.342,133.48L138.902,151.48C137.265,151.957 136.961,151.938 136.183,151.982C133.052,152.16 129.941,150.89 127.665,148.66Z" style="fill:rgb(4,4,4);"/>
    </g>
    <g transform="matrix(1,0,0,1,0,-12)">
        <path d="M93.662,134.02C95.824,134.216 96.403,134.469 97.513,134.968C101.537,136.779 104.25,141.195 103.98,145.662C103.944,146.253 103.909,146.398 103.82,146.981L90.82,217.981C90.174,221.001 88.409,223.613 85.814,225.338L32.814,258.338C32.304,258.635 32.182,258.721 31.646,258.971C23.902,262.579 12.862,253.94 16.911,244.618C17.792,242.587 19.323,240.901 21.186,239.662L70.056,209.234L82.18,143.019C82.18,143.019 83.394,138.553 86.215,136.342C87.784,135.112 89.691,134.321 91.672,134.08C92.948,133.925 93.253,134.008 93.662,134.02Z" style="fill:rgb(4,4,4);"/>
    </g>
    <g transform="matrix(1,0,0,1,0,-7)">
        <path d="M106.514,142.012C107.502,142.081 107.72,142.138 108.027,142.188L156.027,151.188C158.012,151.607 158.626,151.94 159.708,152.597C163.366,154.817 165.514,159.296 164.884,163.595C164.82,164.031 164.789,164.137 164.696,164.567L152.696,214.567C150.902,221.348 142.211,225.107 136.167,221.326C132.293,218.903 130.312,214.032 131.304,209.433L140.604,170.68L103.973,163.812C103.973,163.812 98.707,162.518 96.387,158.347C92.819,151.933 97.438,142.38 105.498,142.011C105.836,141.996 106.175,142.004 106.514,142.012Z" style="fill:rgb(4,4,4);"/>
    </g>
    <g transform="matrix(1,0,0,1.85714,0,-191.143)">
        <rect x="116" y="223" width="106" height="14" style="fill:rgb(4,4,4);"/>
    </g>
</svg>
