<?xml version="1.0" encoding="UTF-8" standalone="no"?>
<!DOCTYPE svg PUBLIC "-//W3C//DTD SVG 1.1//EN" "http://www.w3.org/Graphics/SVG/1.1/DTD/svg11.dtd">
<svg width="100%" height="100%" viewBox="0 0 458 198" version="1.1" xmlns="http://www.w3.org/2000/svg" xmlns:xlink="http://www.w3.org/1999/xlink" xml:space="preserve" xmlns:serif="http://www.serif.com/" style="fill-rule:evenodd;clip-rule:evenodd;stroke-linejoin:round;stroke-miterlimit:2;">
    <g transform="matrix(1,0,0,1,-28.304,-157.44)">
        <g>
            <g transform="matrix(11.4293,0,0,11.4293,-149.75,-75.3109)">
                <g transform="matrix(10.4993,0,0,10.4993,15.7257,27.8609)">
                    <path d="M0.584,-0.7L0.39,-0.244L0.2,-0.7L-0.014,-0.7L0.285,0L0.48,0L0.78,-0.7L0.584,-0.7Z" style="fill:white;fill-rule:nonzero;"/>
                </g>
                <g transform="matrix(10.4993,0,0,10.4993,23.4007,27.8609)">
                    <rect x="0.07" y="-0.7" width="0.198" height="0.7" style="fill:white;fill-rule:nonzero;"/>
                </g>
                <g transform="matrix(10.4993,0,0,10.4993,26.75,27.8609)">
                    <path d="M0.316,0.014C0.524,0.014 0.626,-0.09 0.626,-0.212C0.626,-0.47 0.229,-0.39 0.229,-0.497C0.229,-0.532 0.259,-0.56 0.342,-0.56C0.403,-0.56 0.469,-0.542 0.536,-0.506L0.597,-0.653C0.528,-0.693 0.434,-0.714 0.343,-0.714C0.135,-0.714 0.033,-0.612 0.033,-0.487C0.033,-0.227 0.431,-0.308 0.431,-0.197C0.431,-0.163 0.399,-0.14 0.317,-0.14C0.236,-0.14 0.148,-0.168 0.086,-0.209L0.021,-0.063C0.087,-0.017 0.201,0.014 0.316,0.014Z" style="fill:white;fill-rule:nonzero;"/>
                </g>
                <g transform="matrix(10.4993,0,0,10.4993,33.3331,27.8609)">
                    <path d="M0.393,0.014C0.6,0.014 0.722,-0.103 0.722,-0.312L0.722,-0.7L0.527,-0.7L0.527,-0.318C0.527,-0.198 0.477,-0.15 0.395,-0.15C0.312,-0.15 0.262,-0.198 0.262,-0.318L0.262,-0.7L0.064,-0.7L0.064,-0.312C0.064,-0.103 0.186,0.014 0.393,0.014Z" style="fill:white;fill-rule:nonzero;"/>
                </g>
                <g transform="matrix(10.4993,0,0,10.4993,41.218,27.8609)">
                    <path d="M0.594,0L0.8,0L0.49,-0.7L0.295,-0.7L-0.014,0L0.188,0L0.243,-0.136L0.539,-0.136L0.594,0ZM0.301,-0.282L0.391,-0.506L0.481,-0.282L0.301,-0.282Z" style="fill:white;fill-rule:nonzero;"/>
                </g>
                <g transform="matrix(10.4993,0,0,10.4993,49.2605,27.8609)">
                    <path d="M0.07,0L0.602,0L0.602,-0.157L0.268,-0.157L0.268,-0.7L0.07,-0.7L0.07,0Z" style="fill:white;fill-rule:nonzero;"/>
                </g>
            </g>
            <g transform="matrix(11.4293,0,0,11.4293,-165.34,17.5691)">
                <g transform="matrix(8.39945,0,0,8.39945,17.2137,27.8609)">
                    <path d="M0.594,-0.636L0.594,-0.7L0.114,-0.7L0.114,0L0.188,0L0.188,-0.297L0.55,-0.297L0.55,-0.361L0.188,-0.361L0.188,-0.636L0.594,-0.636Z" style="fill:white;fill-rule:nonzero;"/>
                </g>
                <g transform="matrix(8.39945,0,0,8.39945,23.5301,27.8609)">
                    <path d="M0.283,-0.53C0.2,-0.53 0.122,-0.504 0.069,-0.459L0.101,-0.406C0.144,-0.444 0.208,-0.468 0.276,-0.468C0.374,-0.468 0.425,-0.419 0.425,-0.329L0.425,-0.297L0.258,-0.297C0.107,-0.297 0.055,-0.229 0.055,-0.148C0.055,-0.057 0.128,0.005 0.247,0.005C0.334,0.005 0.396,-0.028 0.428,-0.082L0.428,0L0.496,0L0.496,-0.326C0.496,-0.462 0.419,-0.53 0.283,-0.53ZM0.258,-0.051C0.174,-0.051 0.125,-0.089 0.125,-0.15C0.125,-0.204 0.158,-0.244 0.26,-0.244L0.425,-0.244L0.425,-0.158C0.397,-0.089 0.338,-0.051 0.258,-0.051Z" style="fill:white;fill-rule:nonzero;"/>
                </g>
                <g transform="matrix(8.39945,0,0,8.39945,29.6785,27.8609)">
                    <path d="M0.317,0.005C0.406,0.005 0.481,-0.031 0.523,-0.099L0.47,-0.135C0.434,-0.082 0.378,-0.058 0.317,-0.058C0.202,-0.058 0.118,-0.139 0.118,-0.263C0.118,-0.386 0.202,-0.468 0.317,-0.468C0.378,-0.468 0.434,-0.443 0.47,-0.39L0.523,-0.426C0.481,-0.495 0.406,-0.53 0.317,-0.53C0.16,-0.53 0.046,-0.42 0.046,-0.263C0.046,-0.106 0.16,0.005 0.317,0.005Z" style="fill:white;fill-rule:nonzero;"/>
                </g>
                <g transform="matrix(8.39945,0,0,8.39945,35.6337,27.8609)">
                    <path d="M0.351,-0.083C0.331,-0.065 0.302,-0.056 0.273,-0.056C0.214,-0.056 0.182,-0.09 0.182,-0.152L0.182,-0.466L0.342,-0.466L0.342,-0.526L0.182,-0.526L0.182,-0.641L0.111,-0.641L0.111,-0.526L0.017,-0.526L0.017,-0.466L0.111,-0.466L0.111,-0.148C0.111,-0.051 0.166,0.005 0.265,0.005C0.306,0.005 0.348,-0.007 0.376,-0.032L0.351,-0.083Z" style="fill:white;fill-rule:nonzero;"/>
                </g>
                <g transform="matrix(8.39945,0,0,8.39945,40.0602,27.8609)">
                    <path d="M0.314,0.005C0.468,0.005 0.581,-0.107 0.581,-0.263C0.581,-0.419 0.468,-0.53 0.314,-0.53C0.16,-0.53 0.046,-0.419 0.046,-0.263C0.046,-0.107 0.16,0.005 0.314,0.005ZM0.314,-0.058C0.202,-0.058 0.118,-0.14 0.118,-0.263C0.118,-0.386 0.202,-0.468 0.314,-0.468C0.426,-0.468 0.509,-0.386 0.509,-0.263C0.509,-0.14 0.426,-0.058 0.314,-0.058Z" style="fill:white;fill-rule:nonzero;"/>
                </g>
                <g transform="matrix(8.39945,0,0,8.39945,46.5026,27.8609)">
                    <path d="M0.167,-0.423L0.167,-0.526L0.099,-0.526L0.099,0L0.17,0L0.17,-0.268C0.17,-0.392 0.237,-0.462 0.347,-0.462C0.352,-0.462 0.358,-0.461 0.364,-0.461L0.364,-0.53C0.267,-0.53 0.2,-0.493 0.167,-0.423Z" style="fill:white;fill-rule:nonzero;"/>
                </g>
                <g transform="matrix(8.39945,0,0,8.39945,51.1726,27.8609)">
                    <path d="M0.471,-0.526L0.273,-0.079L0.075,-0.526L0.001,-0.526L0.236,-0.001L0.213,0.05C0.183,0.116 0.151,0.138 0.104,0.138C0.066,0.138 0.034,0.124 0.008,0.098L-0.025,0.151C0.007,0.183 0.054,0.199 0.103,0.199C0.178,0.199 0.234,0.166 0.278,0.063L0.541,-0.526L0.471,-0.526Z" style="fill:white;fill-rule:nonzero;"/>
                </g>
            </g>
        </g>
    </g>
</svg>
